<svg width="32" height="32" viewBox="0 0 32 32" fill="none" xmlns="http://www.w3.org/2000/svg">
<path d="M16 32C7.16667 32 0 24.8333 0 16C0 7.16667 7.16667 0 16 0C24.8333 0 32 7.16667 32 16C32 24.8333 24.8333 32 16 32ZM16 29.9583C23.7083 29.9583 29.9583 23.7083 29.9583 16C29.9583 8.29167 23.7083 2.04167 16 2.04167C8.29167 2.04167 2.04167 8.29167 2.04167 16C2.04167 23.7083 8.29167 29.9583 16 29.9583ZM16 19.2083C14.2083 19.2083 12.7917 17.75 12.7917 16C12.7917 14.2083 14.2083 12.7917 16 12.7917C17.75 12.7917 19.2083 14.2083 19.2083 16C19.2083 17.75 17.75 19.2083 16 19.2083Z" fill="#21211C"/>
</svg>
